<?xml version="1.0" encoding="UTF-8"?>
<svg width="2056" height="422" version="1.1" xmlns="http://www.w3.org/2000/svg"><g data-name="Group 234"><path d="m84 422a55 55 0 0 1 51-51 78 78 0 0 1 11-18 79 79 0 0 1 71-46 76 76 0 0 1 42 13c22-25 53-41 88-41 35 0 66 16 88 41 19-25 49-41 82-41 30 0 56 13 76 33a89 89 0 0 1 69-33 87 87 0 0 1 38 9c6.3-61 56-109 116-109 60 0 109 47 116 107a66 66 0 0 1 30-7.2c37 0 67 30 69 68a57 57 0 0 1 15-2.1 58 58 0 0 1 37 14 91 91 0 0 1 69-32 90 90 0 0 1 39 9c17-57 68-98 128-98 49 0 92 28 116 69a91 91 0 0 1 65-28 90 90 0 0 1 51 16c13-46 54-80 102-80a103 103 0 0 1 67 25c21-37 59-61 103-61 66 0 119 56 119 125l-0.2 4.6a95 95 0 0 1 63 91 99 99 0 0 1-3 24z" fill="#e3f5fd" data-name="Path 514"/><g fill="none" stroke-width="2"><path d="m284 302v-188" opacity=".4" stroke="#53af65" data-name="Line 81"/><path d="m1738 294v-283" stroke="#53af65" data-name="Line 94"/><g stroke="#09c"><path d="m331 108h-27" opacity=".4" data-name="Line 82"/><path d="m331 152h-27" opacity=".4" data-name="Line 98"/><path d="m1656 4.5h63" data-name="Line 93"/><path d="m362 130h-38" opacity=".4" data-name="Line 85"/><path d="m1680 26h38" data-name="Line 92"/></g><path d="m324 140h-20" opacity=".4" stroke="#53af65" data-name="Line 87"/><path d="m362 140h-31" opacity=".4" stroke="#09c" data-name="Line 97"/><path d="m1690 48h28" stroke="#53af65" data-name="Line 91"/><g stroke="#09c"><path d="m1641 48h42" data-name="Line 95"/><path d="m1651 38h48" data-name="Line 90"/><path d="m1670 16h48" data-name="Line 89"/><path d="m348 118h-44" opacity=".4" data-name="Line 84"/></g><path d="m1634 16h29" stroke="#53af65" data-name="Line 88"/></g><path d="m2056 422c-27-41-72-67-122-67-34-0.032-66 12-92 33-15-63-79-102-142-85-33-60-99-93-167-83-67 10-121 61-135 128-49-48-127-45-173 5.5-23-41-66-67-113-69-47-2.4-92 19-119 57-23-18-52-28-81-28-7.4 0.038-15 0.71-22 2-21-47-67-77-118-78s-98 29-120 75c-27-25-66-35-102-25-18-55-69-92-126-92s-109 37-126 92c-29-17-65-18-95-3-30 15-51 45-55 78-57-23-122 3.3-148 59z" fill="#fff" data-name="Path 513"/><g transform="translate(279,103)" fill="none" opacity=".4" stroke="#53af65" stroke-width="2" data-name="Ellipse 50"><circle cx="4.5" cy="4.5" r="4.5" stroke="none"/><circle cx="4.5" cy="4.5" r="3.5"/></g><g transform="translate(1733)" fill="none" stroke="#53af65" stroke-width="2" data-name="Ellipse 51"><circle cx="4.5" cy="4.5" r="4.5" stroke="none"/><circle cx="4.5" cy="4.5" r="3.5"/></g></g></svg>
