<svg xmlns="http://www.w3.org/2000/svg" width="989.3" height="505.4"><g data-name="Group 121" transform="translate(22)"><path data-name="Path 57" d="M234.8 121.4c-8.5-32.2-51-71-119.6-58.4-44.2 8.2-56 41.5-79.6 63C18 141.9-7 155-15.1 177.4c-19 51.8 6.8 108 52.7 125.6 28.2 10.8 102.4 4.3 130.4-6.6" stroke-miterlimit="10" stroke-dasharray="2.6" stroke-width="1.1" stroke="#96daf9" fill="none"/><path data-name="Path 48" d="M761.8 289.7c8 27.3 32 57.9 59.2 57.9 30.9 0 38.5-30 47.5-39.5 22.2-23.3 36-28.8 64.3-34.5 18.4-3.8 38-34.6 33.2-65.2-8.6-55.7-92.8-82.3-114.1-123.1C834.5 52 835.4 32 805 8.3" stroke-miterlimit="10" stroke-dasharray="2.6" stroke-width="1.1" stroke="#91d2f4" fill="none"/><g data-name="Group 73"><g data-name="Group 71"><path data-name="Path 196" d="M940.8 355.7a2.6 2.6 0 002.6-2.7v-18.6a2.6 2.6 0 00-5.2 0V353a2.6 2.6 0 002.6 2.7z" fill="#53af65"/></g><g data-name="Group 72"><path data-name="Path 197" d="M931.5 346.4h18.6a2.6 2.6 0 100-5.3h-18.6a2.6 2.6 0 000 5.3z" fill="#53af65"/></g></g><path data-name="Path 191" d="M866.2 167.7a5.5 5.5 0 105.6-5.5 5.5 5.5 0 00-5.6 5.5z" fill="#53af65"/><g data-name="Group 64"><path data-name="Path 182" d="M68.7 218.6a15 15 0 11-8.4-19.5 15 15 0 018.4 19.5z" fill="#53af65"/><path data-name="Path 183" d="M48.3 211.3l3.4 7.5 11.3-7" stroke-linejoin="round" stroke-linecap="round" stroke-width="1.1" stroke="#fff" fill="none"/></g><g data-name="Group 120" transform="translate(118.9)"><path data-name="Path 273" d="M687.3 0H17A17 17 0 000 16.9v446.8h704.2V16.9A17 17 0 00687.3 0z" fill="#cae7f9"/><rect data-name="Rectangle 1050" width="665" height="427.3" rx="7" transform="translate(20 21.8)" fill="#f2fafe"/><path data-name="Path 274" d="M354.5 10.4a3 3 0 11-3-3 3 3 0 013 3z" fill="#abcde5"/><path data-name="Rectangle 1051" d="M275 463.6h152.5v15.5H275z" fill="#abcde5"/></g><path data-name="Path 284" d="M898.6 505.4H42.3L0 490h940.9z" fill="#abcde5"/><path data-name="Path 285" d="M534.3 463.6v5.7a7 7 0 01-7 7H413a7 7 0 01-7-7v-5.7H0V490h940.9v-26.3z" fill="#d7f0fc"/><rect data-name="Rectangle 1288" width="56.6" height="56.6" rx="28.3" transform="translate(863.8 275.3)" stroke-miterlimit="10" stroke-width="4" stroke="#fff" fill="none"/><g data-name="Group 235" transform="translate(-417.4 -79)" fill="#cae7f9"><circle cx="6.6" cy="6.6" r="6.6" transform="translate(585.3 131.5)" opacity=".8"/><circle data-name="Oval" cx="6.6" cy="6.6" r="6.6" transform="translate(585.3 168.2)" opacity=".8"/><circle data-name="Oval" cx="6.6" cy="6.6" r="6.6" transform="translate(585.3 204.8)" opacity=".8"/><circle data-name="Oval" cx="6.6" cy="6.6" r="6.6" transform="translate(585.3 241.5)" opacity=".8"/><circle data-name="Oval" cx="6.6" cy="6.6" r="6.6" transform="translate(585.3 278.1)" opacity=".8"/><circle data-name="Oval" cx="6.6" cy="6.6" r="6.6" transform="translate(585.3 314.8)" opacity=".8"/><circle data-name="Oval" cx="6.6" cy="6.6" r="6.6" transform="translate(585.3 351.4)" opacity=".8"/><circle data-name="Oval" cx="6.6" cy="6.6" r="6.6" transform="translate(585.3 468.4)" opacity=".8"/><circle data-name="Oval" cx="6.6" cy="6.6" r="6.6" transform="translate(585.3 388)" opacity=".8"/><circle data-name="Oval" cx="6.6" cy="6.6" r="6.6" transform="translate(585.3 507)" opacity=".8"/><circle data-name="Oval" cx="6.6" cy="6.6" r="6.6" transform="translate(585.3 429)" opacity=".8"/><rect width="24.9" height="11.3" rx="5" transform="translate(637.4 130.5)"/><rect data-name="Rectangle" width="99" height="11.3" rx="5" transform="translate(683 130.5)"/><rect data-name="Rectangle" width="43.6" height="11.3" rx="5" transform="translate(799.8 130.5)"/><rect data-name="Rectangle" width="153.7" height="11.3" rx="5" transform="translate(819.9 168.9)"/><rect data-name="Rectangle" width="153.7" height="11.3" rx="5" transform="translate(819.9 507.9)"/><rect data-name="Rectangle" width="41.8" height="11.3" rx="5" transform="translate(759.9 168.9)"/><rect data-name="Rectangle" width="41.8" height="11.3" rx="5" transform="translate(759.9 507.9)"/><rect data-name="Rectangle" width="104.5" height="11.3" rx="5" transform="translate(637.4 168.9)"/><rect data-name="Rectangle" width="104.5" height="11.3" rx="5" transform="translate(637.4 507.9)"/><rect data-name="Rectangle" width="24.9" height="11.3" rx="5" transform="translate(637.4 242.6)"/><rect data-name="Rectangle" width="24.9" height="11.3" rx="5" transform="translate(637.4 427.6)"/><rect data-name="Rectangle" width="83.7" height="11.3" rx="5" transform="translate(678.7 242.6)"/><rect data-name="Rectangle" width="83.7" height="11.3" rx="5" transform="translate(678.7 427.6)"/><rect data-name="Rectangle" width="58.9" height="11.3" rx="5" transform="translate(780.4 242.6)"/><rect data-name="Rectangle" width="82.9" height="11.3" rx="5" transform="translate(780.4 427.6)"/><rect data-name="Rectangle" width="61" height="11.3" rx="5" transform="translate(694.8 206.2)"/><rect data-name="Rectangle" width="43.6" height="11.3" rx="5" transform="translate(637.4 206.2)"/><rect data-name="Rectangle" width="20.9" height="11.3" rx="5" transform="translate(773.3 206.2)"/><rect data-name="Rectangle" width="72.3" height="11.3" rx="5" transform="translate(804 206.2)"/><rect data-name="Rectangle" width="24.9" height="11.3" rx="5" transform="translate(637.4 389.3)"/><rect data-name="Rectangle" width="83.7" height="11.3" rx="5" transform="translate(678.7 389.3)"/><rect data-name="Rectangle" width="58.9" height="11.3" rx="5" transform="translate(776.2 389.3)"/><rect data-name="Rectangle" width="61" height="11.3" rx="5" transform="translate(694.8 352)"/><rect data-name="Rectangle" width="43.6" height="11.3" rx="5" transform="translate(637.4 352)"/><rect data-name="Rectangle" width="20.9" height="11.3" rx="5" transform="translate(769.1 352)"/><rect data-name="Rectangle" width="72.3" height="11.3" rx="5" transform="translate(799.8 352)"/><rect data-name="Rectangle" width="24.9" height="11.3" rx="5" transform="translate(637.4 315.6)"/><rect data-name="Rectangle" width="24.9" height="11.3" rx="5" transform="translate(637.4 470.6)"/><rect data-name="Rectangle" width="178.3" height="11.3" rx="5" transform="translate(678.7 315.6)"/><rect data-name="Rectangle" width="178.3" height="11.3" rx="5" transform="translate(678.7 470.6)"/><rect data-name="Rectangle" width="58.9" height="11.3" rx="5" transform="translate(870.8 315.6)"/><rect data-name="Rectangle" width="58.9" height="11.3" rx="5" transform="translate(870.8 470.6)"/><rect data-name="Rectangle" width="113.2" height="11.3" rx="5" transform="translate(767.8 279.2)"/><rect data-name="Rectangle" width="61" height="11.3" rx="5" transform="translate(694.8 279.2)"/><rect data-name="Rectangle" width="43.6" height="11.3" rx="5" transform="translate(637.4 279.2)"/></g></g></svg>